# xmcd
#
# Track frame offsets: 
#        150
#        13426
#        25124
#        38057
#        45838
#        53648
#        62600
#        73340
#        83222
#        91043
#        104582
#        117083
#        128558
#        138097
#        147166
#        161458
#        172551
#        184755
#        195799
#        209559
#        223011
#        233569
#        245085
#        262310
#        272379
#        286793
#        296985
#        308635
#        318625
#        332341
#
# Disc length: 4586 seconds
#
# Revision: 0
# Processed by: cddbd v1.5.1PL2 Copyright (c) Steve Scherf et al.
# Submitted via: ExactAudioCopy v0.95b3
#
DISCID=a611e81e
DTITLE=Bennie Hess - Wild Hog Hop
DYEAR=1900
DGENRE=Country
TTITLE0=Bennie Hess Boogie (Opera)
TTITLE1=You Just Won't Do
TTITLE2=Drink Drink Drink
TTITLE3=Jungle Land Rock
TTITLE4=Wild Hog Boogie (Spade)
TTITLE5=You Ain't Cheating On Me Now
TTITLE6=I'm So In Love With You
TTITLE7=Boppin' The Rock
TTITLE8=You Called Me Honey
TTITLE9=Lifes Meditation
TTITLE10=Novelty Yodel 1
TTITLE11=Wild Hog Hop (Major)
TTITLE12=Your Kind Ain't Hard To Get
TTITLE13=Bennie Hess Boogie (Showland)
TTITLE14=Bennie's Texas Blues
TTITLE15=Novelty Yodel 2 - 1/2 Century Blues
TTITLE16=Tennessee Mama Blues
TTITLE17=Truck Driving Man
TTITLE18=Country Styled Boogie
TTITLE19=Look Once More Before You Go
TTITLE20=Blue Monday Night
TTITLE21=Teenage Bop
TTITLE22=Gone Mama Blues
TTITLE23=Elvis Presley Boogie
TTITLE24=Travellin' Blues
TTITLE25=Wild Hog Hop (Musicor)
TTITLE26=I'm A One Woman Man
TTITLE27=Two Potatoes And One Oignon
TTITLE28=Truckers Blues
TTITLE29=Troy Hess Boogie
EXTD=
EXTT0=
EXTT1=
EXTT2=
EXTT3=
EXTT4=
EXTT5=
EXTT6=
EXTT7=
EXTT8=
EXTT9=
EXTT10=
EXTT11=
EXTT12=
EXTT13=
EXTT14=
EXTT15=
EXTT16=
EXTT17=
EXTT18=
EXTT19=
EXTT20=
EXTT21=
EXTT22=
EXTT23=
EXTT24=
EXTT25=
EXTT26=
EXTT27=
EXTT28=
EXTT29=
PLAYORDER=
